<?xml version="1.0" encoding="UTF-8"?>
<!DOCTYPE svg PUBLIC "-//W3C//DTD SVG 1.1//EN" "http://www.w3.org/Graphics/SVG/1.1/DTD/svg11.dtd">
<!-- Creator: CorelDRAW X6 -->
<svg xmlns="http://www.w3.org/2000/svg" xml:space="preserve" width="210mm" height="297mm" version="1.1" style="shape-rendering:geometricPrecision; text-rendering:geometricPrecision; image-rendering:optimizeQuality; fill-rule:evenodd; clip-rule:evenodd"
viewBox="0 0 21000 29700"
 xmlns:xlink="http://www.w3.org/1999/xlink">
 <defs>
  <style type="text/css">
   <![CDATA[
    .fil0 {fill:#FEFEFE;fill-rule:nonzero}
    .fil1 {fill:#FEFEFE;fill-rule:nonzero;fill-opacity:0.309804}
   ]]>
  </style>
 </defs>
 <g id="Camada_x0020_1">
  <metadata id="CorelCorpID_0Corel-Layer"/>
  <path class="fil0" d="M7291 7886l0 0c-1,-3 -3,-8 -6,-16 -3,-7 -5,-15 -8,-23 -3,-8 -5,-14 -6,-18 -2,7 -4,14 -6,22 -2,7 -4,14 -6,20 -2,6 -4,11 -6,16l-47 116 132 0 -47 -116zm113 277l-50 -118 -166 0 -50 118 -53 0 164 -384 47 0 163 384 -55 0z"/>
  <path class="fil0" d="M7625 7910l0 0c-18,0 -33,4 -45,13 -12,9 -22,21 -28,38 -6,16 -10,36 -10,60 0,35 7,62 21,81 14,19 35,28 62,28 16,0 30,-2 41,-6 11,-4 21,-10 28,-18 7,-8 13,-18 16,-31 4,-13 5,-27 5,-44l0 -11c0,-26 -3,-47 -10,-63 -6,-16 -17,-28 -30,-35 -14,-7 -31,-11 -52,-11zm-7 -40c21,0 39,4 56,11 17,7 31,18 43,33l3 0 7 -38 41 0 0 292c0,27 -5,50 -15,68 -10,18 -26,32 -46,42 -21,9 -47,14 -79,14 -23,0 -43,-2 -62,-5 -19,-3 -36,-8 -51,-14l0 -43c15,7 32,13 52,17 20,4 41,6 64,6 27,0 48,-7 64,-22 15,-14 23,-34 23,-59l0 -11c0,-4 0,-10 1,-18 0,-8 1,-14 1,-17l-2 0c-11,15 -25,26 -41,33 -16,7 -35,11 -57,11 -41,0 -72,-13 -95,-39 -23,-26 -34,-63 -34,-109 0,-46 11,-82 34,-109 23,-27 54,-40 95,-40z"/>
  <path class="fil0" d="M8012 7871c6,0 12,0 19,1 7,1 13,1 18,2l-6 43c-5,-1 -11,-2 -17,-3 -6,-1 -12,-1 -17,-1 -12,0 -24,2 -35,7 -11,5 -21,11 -29,20 -9,8 -15,18 -20,30 -5,12 -7,25 -7,40l0 153 -52 0 0 -287 42 0 6 53 2 0c7,-11 15,-20 24,-29 9,-9 20,-16 32,-21 12,-5 25,-8 40,-8z"/>
  <path class="fil0" d="M8129 8019l0 0c0,23 3,42 10,59 6,17 17,29 30,38 14,9 31,13 52,13 21,0 38,-4 52,-13 14,-9 24,-22 30,-38 6,-17 10,-36 10,-59 0,-23 -3,-42 -10,-58 -7,-16 -17,-28 -30,-37 -13,-9 -31,-13 -52,-13 -32,0 -55,10 -70,29 -14,19 -22,46 -22,80zm237 0c0,24 -3,45 -10,64 -7,18 -17,34 -29,47 -13,13 -28,23 -46,29 -18,7 -38,10 -61,10 -21,0 -40,-3 -57,-10 -18,-7 -33,-16 -46,-29 -13,-13 -23,-28 -30,-47 -7,-18 -11,-40 -11,-64 0,-32 6,-59 18,-81 12,-22 29,-39 50,-50 22,-12 48,-17 78,-17 29,0 54,6 75,17 22,12 39,28 51,50 12,22 18,49 18,81z"/>
  <path class="fil0" d="M8497 7876l0 0 0 287 -52 0 0 -287 52 0zm-25 -108c8,0 15,2 21,7 6,5 9,12 9,23 0,10 -3,18 -9,23 -6,5 -13,8 -21,8 -9,0 -16,-3 -22,-8 -6,-5 -9,-12 -9,-23 0,-10 3,-18 9,-23 6,-5 13,-7 22,-7z"/>
  <path class="fil0" d="M8747 7871c38,0 66,8 85,25 19,17 29,43 29,81l0 187 -51 0 0 -184c0,-23 -6,-41 -17,-52 -11,-11 -29,-17 -53,-17 -35,0 -59,9 -72,27 -13,18 -20,44 -20,77l0 149 -52 0 0 -287 42 0 8 39 3 0c7,-10 16,-18 26,-25 10,-7 22,-12 34,-15 13,-3 25,-5 39,-5z"/>
  <path class="fil0" d="M9075 8129l0 0c33,0 57,-8 70,-25 13,-17 20,-42 20,-75l0 -9c0,-36 -6,-63 -19,-82 -13,-19 -37,-29 -72,-29 -28,0 -49,10 -62,30 -14,20 -21,47 -21,81 0,34 7,61 21,80 14,19 35,28 63,28zm-8 39c-39,0 -70,-12 -94,-37 -23,-25 -35,-62 -35,-111 0,-49 12,-87 35,-112 24,-25 55,-38 94,-38 16,0 31,2 43,6 12,4 23,9 32,15 9,6 17,14 23,21l4 0c0,-5 -1,-12 -2,-21 -1,-9 -1,-16 -1,-22l0 -115 52 0 0 407 -42 0 -8 -39 -2 0c-6,8 -14,16 -23,22 -9,7 -20,12 -32,16 -12,4 -27,6 -43,6z"/>
  <path class="fil0" d="M9576 7876l0 287 -42 0 -8 -38 -2 0c-7,10 -15,18 -26,25 -11,6 -22,11 -35,14 -13,3 -26,5 -39,5 -25,0 -46,-4 -63,-11 -17,-7 -30,-19 -38,-34 -9,-15 -13,-35 -13,-59l0 -188 52 0 0 185c0,23 6,40 17,51 11,11 29,17 53,17 23,0 42,-4 55,-12 13,-8 23,-20 29,-35 6,-16 9,-34 9,-57l0 -149 52 0z"/>
  <path class="fil0" d="M9877 8084c0,19 -5,34 -15,47 -10,13 -25,22 -43,28 -19,6 -41,10 -67,10 -22,0 -41,-2 -57,-5 -16,-3 -30,-8 -42,-13l0 -43c13,6 28,11 45,16 18,5 36,7 54,7 26,0 45,-4 57,-12 12,-8 18,-18 18,-31 0,-7 -2,-14 -6,-19 -4,-6 -12,-11 -23,-17 -11,-6 -27,-12 -48,-19 -20,-7 -38,-14 -52,-21 -14,-7 -26,-16 -33,-26 -8,-10 -12,-23 -12,-39 0,-24 11,-43 33,-56 22,-13 50,-20 85,-20 19,0 37,2 54,5 17,3 32,8 47,14l-18 38c-13,-5 -27,-9 -42,-13 -14,-4 -29,-5 -45,-5 -21,0 -37,3 -48,9 -11,6 -17,15 -17,25 0,8 3,15 8,20 5,6 14,11 26,16 12,5 28,11 48,18 20,7 37,14 51,21 14,7 25,16 32,26 7,10 11,23 11,38z"/>
  <path class="fil0" d="M10056 8130c8,0 16,-1 24,-2 8,-1 15,-3 20,-4l0 36c-5,3 -13,5 -23,6 -10,2 -20,2 -29,2 -16,0 -32,-3 -45,-8 -14,-5 -25,-14 -34,-27 -9,-13 -13,-31 -13,-54l0 -167 -45 0 0 -23 45 -19 21 -61 30 0 0 66 91 0 0 36 -91 0 0 166c0,18 5,30 14,39 9,8 21,13 35,13z"/>
  <path class="fil0" d="M10307 7871c6,0 12,0 19,1 7,1 13,1 18,2l-6 43c-5,-1 -11,-2 -17,-3 -6,-1 -12,-1 -17,-1 -12,0 -24,2 -35,7 -11,5 -21,11 -29,20 -9,8 -15,18 -20,30 -5,12 -7,25 -7,40l0 153 -52 0 0 -287 42 0 6 53 2 0c7,-11 15,-20 24,-29 9,-9 20,-16 32,-21 12,-5 25,-8 40,-8z"/>
  <path class="fil0" d="M10451 7876l0 0 0 287 -52 0 0 -287 52 0zm-25 -108c8,0 15,2 21,7 6,5 9,12 9,23 0,10 -3,18 -9,23 -6,5 -13,8 -21,8 -9,0 -16,-3 -22,-8 -6,-5 -9,-12 -9,-23 0,-10 3,-18 9,-23 6,-5 13,-7 22,-7z"/>
  <path class="fil0" d="M10683 8024l0 0c-39,1 -66,7 -81,17 -15,10 -23,24 -23,42 0,16 5,28 16,35 11,8 25,11 41,11 27,0 49,-7 66,-20 18,-13 26,-34 26,-62l0 -26 -46 2zm-15 -153c38,0 67,8 85,23 18,15 28,40 28,73l0 196 -38 0 -10 -41 -2 0c-9,10 -18,19 -28,26 -10,7 -21,12 -33,15 -12,3 -27,5 -45,5 -19,0 -36,-3 -51,-9 -15,-6 -27,-15 -35,-28 -9,-13 -13,-29 -13,-48 0,-29 12,-51 37,-66 25,-16 63,-24 114,-25l53 -2 0 -17c0,-24 -6,-41 -17,-50 -11,-9 -27,-14 -48,-14 -16,0 -32,2 -47,7 -15,4 -29,10 -42,15l-16 -35c14,-7 30,-13 49,-17 19,-5 38,-7 59,-7z"/>
  <polygon class="fil0" points="10927,8163 10875,8163 10875,7756 10927,7756 "/>
  <path class="fil0" d="M8238 6220l-4 0 0 1155 252 0 0 -896c0,-139 -109,-253 -248,-258z"/>
  <path class="fil0" d="M10861 6870c-42,-47 -104,-85 -203,-124l-291 -114c-91,-38 -116,-63 -116,-114 0,-66 61,-91 218,-91 85,0 166,8 242,23 0,0 0,0 0,0l156 35c1,-28 3,-56 4,-84 0,0 0,0 0,-1l0 0c0,-5 0,-11 0,-17l0 -27c0,-35 -3,-60 -20,-77 -16,-16 -42,-26 -86,-39 -90,-23 -188,-34 -291,-34 -332,0 -480,96 -480,312 0,83 19,145 61,194 39,46 97,82 189,118l271 109c128,52 159,79 159,135 0,71 -60,96 -231,96 -80,0 -158,-6 -236,-18 -34,-5 -56,-8 -96,-15l-132 -30c-1,28 -3,56 -4,84 0,0 0,0 0,1l0 0c0,5 0,11 0,17l0 27c0,16 1,31 3,43 7,39 30,56 99,73 108,26 224,39 344,39 351,0 508,-99 508,-321 0,-85 -21,-148 -66,-199z"/>
  <path class="fil0" d="M9668 6307c-72,-66 -171,-100 -295,-100 -68,0 -134,11 -198,33 -53,18 -106,45 -159,80 -8,5 -38,28 -54,39 -41,-80 -123,-135 -219,-139l-4 0 0 12 0 1143 0 0 252 0 0 0 0 0 0 -840c47,-30 97,-55 149,-75 52,-20 104,-30 153,-30 73,0 131,19 171,57 40,38 61,99 61,183l0 704 252 0 0 -756c0,-141 -37,-245 -109,-312z"/>
  <path class="fil0" d="M8396 5901l-93 0c-40,0 -73,33 -73,73l0 72c0,40 33,73 73,73l93 0c40,0 73,-33 73,-73l0 -72c0,-40 -33,-73 -73,-73z"/>
  <path class="fil0" d="M7412 7155l0 -965c0,-154 -121,-281 -273,-289l0 1475 935 0 0 -221 -662 0z"/>
  <path class="fil1" d="M5913 5938l457 1082 -524 64 -554 -1312 371 0c109,0 208,65 250,166z"/>
  <path class="fil0" d="M4833 5938l-462 1093c-94,222 69,467 310,467l44 0 730 -1727 -371 0c-109,0 -208,65 -250,166z"/>
  <path class="fil0" d="M6311 7020l-1020 0 -6 0c-160,0 -303,98 -360,247l-89 232 953 0 133 0c160,0 303,-98 360,-247l89 -232 -59 0z"/>
 </g>
</svg>
